<?xml version="1.0" encoding="UTF-8"?>
<svg id="Layer_1" data-name="Layer 1" xmlns="http://www.w3.org/2000/svg" viewBox="0 0 969.65 861.77">
  <defs>
    <style>
      .cls-1 {
        fill: #0d4d82;
      }

      .cls-2 {
        fill: #0b7445;
      }

      .cls-3 {
        fill: #822735;
      }

      .cls-4 {
        fill: #fbda54;
      }
    </style>
  </defs>
  <path class="cls-2" d="M482.47.03c92.7-1.95,130.44,99.09,169.03,166.38,75.18,131.08,150.83,261.9,226,393,25.75,44.9,56.94,91.63,78.72,138.28,37.57,80.5-7.09,152.09-92.01,164.08H106.14c-45.58-5.96-89.85-33.4-102.38-79.62-14.14-52.16,14.42-93.89,38.75-137.09C153.81,447.39,271.7,253.35,383.27,55.82,405.76,23.14,442.17.88,482.47.03ZM477.44,70.99c-11.81,1.52-24.89,9.44-32.78,18.22-127.6,217.45-254.47,436.01-378.53,655.47-5.62,27.95,17.59,49.52,44.02,52.1h749.07c31.82-4.23,54.83-27.97,41.95-61.02-121.77-215.31-246.91-428.75-371.64-642.36-12.48-15.84-31.63-25.03-52.08-22.41Z"/>
  <path class="cls-4" d="M477.44,70.99c20.45-2.62,39.61,6.57,52.08,22.41,124.73,213.61,249.88,427.05,371.64,642.36,12.89,33.05-10.13,56.78-41.95,61.02H110.15c-26.43-2.58-49.64-24.15-44.02-52.1,124.06-219.45,250.93-438.02,378.53-655.47,7.89-8.78,20.97-16.7,32.78-18.22ZM637.68,400.73c-9.5-112.14-131.8-164.13-227.02-111.52-62.07,34.29-91.27,104.8-59.17,171.21,30.22,62.53,109.38,69.98,165.22,97.78,25.71,12.8,51.86,36.42,36.15,68.2-17.53,35.47-77.02,27.7-109.17,24.33v76c64.14,13.37,146.12,1.66,181.81-59.69,22.54-38.76,21.88-95.18-2.78-132.83-36.46-55.68-115.57-56.11-168.7-86.3-26.5-15.06-42.56-40.58-25.85-70.19,25.48-45.12,94.92-40.73,121.33.71,4.59,7.21,6.68,14.42,9.69,22.31h78.5ZM328.48,592.03c-25.77,2.19-49.12,20.35-57.07,44.93-20.62,63.7,53.57,114.92,105.74,71.74,49.83-41.24,15.18-122.1-48.67-116.67Z"/>
  <path class="cls-1" d="M637.68,400.73h-78.5c-3.01-7.89-5.1-15.1-9.69-22.31-26.41-41.44-95.85-45.83-121.33-.71-16.72,29.61-.66,55.13,25.85,70.19,53.13,30.19,132.24,30.62,168.7,86.3,24.66,37.66,25.32,94.08,2.78,132.83-35.69,61.36-117.67,73.07-181.81,59.69v-76c32.16,3.37,91.64,11.14,109.17-24.33,15.71-31.79-10.44-55.4-36.15-68.2-55.84-27.8-134.99-35.25-165.22-97.78-32.1-66.41-2.9-136.92,59.17-171.21,95.22-52.61,217.52-.62,227.02,111.52Z"/>
  <path class="cls-3" d="M328.48,592.03c63.85-5.43,98.5,75.43,48.67,116.67-52.17,43.18-126.36-8.05-105.74-71.74,7.96-24.57,31.3-42.74,57.07-44.93Z"/>
</svg>