<?xml version="1.0" encoding="UTF-8"?>
<svg id="Layer_1" data-name="Layer 1" xmlns="http://www.w3.org/2000/svg" viewBox="0 0 1024 910.07">
  <defs>
    <style>
      .cls-1 {
        fill: #fbda54;
      }
    </style>
  </defs>
  <path class="cls-1" d="M504.16,74.97c21.59-2.77,41.83,6.94,55,23.66,131.73,225.58,263.88,450.98,392.47,678.36,13.61,34.9-10.7,59.97-44.3,64.44H116.28c-27.91-2.72-52.42-25.5-46.49-55.02C200.81,554.66,334.78,323.84,469.54,94.21c8.34-9.27,22.14-17.64,34.62-19.24Z"/>
  <path d="M509.52.03c97.89-2.06,137.76,104.65,178.51,175.7,79.4,138.43,159.29,276.58,238.67,415.03,27.19,47.42,60.14,96.77,83.13,146.03,39.68,85.01-7.49,160.61-97.16,173.28H112.09c-48.14-6.3-94.88-35.27-108.12-84.08-14.94-55.09,15.23-99.16,40.92-144.78C162.43,472.47,286.93,267.55,404.76,58.95,428.51,24.44,466.95.92,509.52.03ZM504.2,74.97c-12.47,1.6-26.28,9.97-34.62,19.24-134.76,229.63-268.74,460.45-399.75,692.2-5.94,29.51,18.58,52.29,46.49,55.02h791.06c33.6-4.47,57.91-29.54,44.3-64.44-128.59-227.38-260.75-452.78-392.47-678.36-13.17-16.72-33.41-26.43-55-23.66Z"/>
  <path d="M706.18,643.82c-.7,102.78-85.89,150.65-188.67,150.65s-188.67-51.39-188.67-146.43c0-8.45,4.93-14.08,12.67-14.78h55.62c9.15,0,14.78,5.63,14.78,15.49,0,29.57,25.34,66.18,105.6,66.18,71.1,0,104.19-23.94,104.19-71.1,0-40.83-33.09-65.47-104.89-71.81-98.56-8.45-180.22-38.02-180.22-137.98,0-93.63,88.7-145.02,173.89-145.02s178.81,45.06,178.81,146.43c0,8.45-4.93,15.49-12.67,15.49h-59.14c-7.74,0-12.67-7.04-12.67-15.49,0-38.72-42.24-69.7-94.33-69.7-48.58,0-89.41,30.98-89.41,68.29,0,39.42,38.72,51.39,97.85,57.73,107.71,11.26,187.26,44.35,187.26,152.06Z"/>
  <rect class="cls-1" x="328.3" y="605.86" width="99.29" height="156.52" transform="translate(538.86 -80.71) rotate(40.8)"/>
  <path d="M321.55,560.53c67.43-5.73,104.02,79.66,51.4,123.21-55.1,45.6-133.44-8.5-111.67-75.76,8.4-25.95,33.05-45.13,60.27-47.45Z"/>
  <path d="M469.44,712.09c-13.3-2.56-23.69-9.25-30.82-17.51-6.44-7.46-14.39-8.04-21.31-2.05l-42.08,36.36c-5.4,5.59-5.45,13.08.07,19.47,17.39,20.13,63.88,33.03,86.02,39.79,9.5-26.02-3.79-51.14,8.12-76.06Z"/>
</svg>
