<?xml version="1.0" encoding="UTF-8"?>
<svg id="Layer_1" data-name="Layer 1" xmlns="http://www.w3.org/2000/svg" viewBox="0 0 721.66 648.14">
  <defs>
    <style>
      .cls-1 {
        fill: #51467f;
      }

      .cls-2 {
        fill: #86b9ef;
      }

      .cls-3 {
        fill: #f4ea92;
      }

      .cls-4 {
        fill: #4c3f75;
      }
    </style>
  </defs>
  <path class="cls-4" d="M440.25,49.67c33.77,54.26,64.87,112.42,97.2,168.29,52.85,91.35,106.27,182.05,157.97,274.03,5.81,10.34,13.14,20.04,18.08,30.92,25.79,56.8-12.45,120.91-74.14,125.23H81.27c-56.92-4.22-94.9-62.51-76.66-116.74C97.35,364.53,194.71,200.17,289.98,34.77c31.4-42.08,97.83-47.16,134.34-8.68,6.94,7.32,10.74,15.25,15.93,23.59ZM518.23,296.71c-44.03-76.15-87.22-152.81-131.98-228.54-10.53-13.48-30.36-16.33-44.31-6.45-8.3,5.87-20.48,29.77-26.32,39.68C229.33,247.89,146.54,398.12,59.43,545.21c-10.34,19.4,3.42,44.38,24.85,46.93h553.09c21.5-3.03,35.18-26.24,25.18-46.27-47.96-83.17-96.3-166.13-144.32-249.16Z"/>
  <path class="cls-2" d="M518.23,296.71c48.02,83.04,96.36,165.99,144.32,249.16,10,20.03-3.67,43.24-25.18,46.28H84.27c-21.42-2.56-35.18-27.54-24.85-46.94C146.54,398.12,229.33,247.89,315.62,101.4c5.84-9.91,18.02-33.81,26.32-39.68,13.95-9.88,33.79-7.03,44.31,6.45,44.76,75.73,87.95,152.4,131.98,228.54ZM433.4,249.68c26.81-33.5-26.96-56.32-53.1-58.57-109.23-9.38-156.12,122.59-61.4,181.4,23.13,14.36,78.51,30.37,83.47,59.53,5.45,32.03-17.47,49.67-47.16,50.96-3.12.13-6.75-1.16-10.88-.88-36.09,2.49-38.35,54.12,2.95,57.02,107.8,7.58,157.13-123.27,62.83-182.83-23.73-14.99-75.74-30.16-83.6-58.4-9.92-35.65,27.2-59.74,59-48,8.98,3.31,14.94,10.27,25.81,10.27,7.85,0,17.22-4.42,22.09-10.5Z"/>
  <path class="cls-1" d="M433.4,249.68c-4.87,6.08-14.24,10.5-22.09,10.5-10.88,0-16.83-6.96-25.81-10.27-31.8-11.74-68.93,12.35-59,48,7.86,28.24,59.87,43.41,83.6,58.4,94.3,59.56,44.97,190.41-62.83,182.83-41.3-2.9-39.04-54.53-2.95-57.02,4.13-.28,7.76,1.01,10.88.88,29.69-1.28,52.61-18.93,47.16-50.96-4.96-29.15-60.34-45.16-83.47-59.53-94.72-58.81-47.83-190.78,61.4-181.4,26.14,2.24,79.91,25.07,53.1,58.57Z"/>
  <path class="cls-3" d="M258.6,449.38c47.71-6.09,51.84,61.99,9.7,65.7-45.57,4.01-48.73-60.72-9.7-65.7Z"/>
</svg>